<svg width="36" height="36" viewBox="0 0 36 36" fill="none" xmlns="http://www.w3.org/2000/svg">
<circle cx="18" cy="18" r="18" fill="#AEE5F3"/>
<path fill-rule="evenodd" clip-rule="evenodd" d="M22.5674 15.3359C22.9426 15.6258 23.0111 16.1641 22.7203 16.5382L19.9232 20.1376C19.7829 20.318 19.5763 20.4352 19.3491 20.4632C19.1219 20.4911 18.8928 20.4276 18.7128 20.2866L16.1352 18.2675L13.8063 21.2855C13.5169 21.6606 12.9773 21.7308 12.601 21.4421C12.2248 21.1535 12.1545 20.6154 12.444 20.2403L15.3022 16.5362C15.4422 16.3549 15.649 16.2369 15.8767 16.2085C16.1043 16.18 16.334 16.2436 16.5144 16.3849L19.0943 18.4058L21.3615 15.4884C21.6523 15.1142 22.1921 15.046 22.5674 15.3359Z" fill="#354259"/>
<path fill-rule="evenodd" clip-rule="evenodd" d="M25.3004 9.71398C24.7614 9.71398 24.3244 10.1497 24.3244 10.6871C24.3244 11.2246 24.7614 11.6603 25.3004 11.6603C25.8395 11.6603 26.2764 11.2246 26.2764 10.6871C26.2764 10.1497 25.8395 9.71398 25.3004 9.71398ZM22.6055 10.6871C22.6055 9.20307 23.8121 8 25.3004 8C26.7888 8 27.9954 9.20308 27.9954 10.6871C27.9954 12.1712 26.7888 13.3743 25.3004 13.3743C23.8121 13.3743 22.6055 12.1712 22.6055 10.6871Z" fill="#354259"/>
<path fill-rule="evenodd" clip-rule="evenodd" d="M9.48028 10.4509C10.465 9.39178 11.8673 8.80273 13.5186 8.80273H20.4592C20.9339 8.80273 21.3187 9.18642 21.3187 9.65973C21.3187 10.133 20.9339 10.5167 20.4592 10.5167H13.5186C12.294 10.5167 11.3667 10.9431 10.7409 11.6162C10.1082 12.2966 9.71898 13.3001 9.71898 14.5581V22.2542C9.71898 23.5164 10.102 24.5167 10.7286 25.1926C11.3477 25.8604 12.2731 26.2868 13.5186 26.2868H21.7354C22.9612 26.2868 23.8885 25.8619 24.5139 25.1909C25.1459 24.5129 25.535 23.512 25.535 22.2542V15.5517C25.535 15.0784 25.9199 14.6947 26.3945 14.6947C26.8692 14.6947 27.254 15.0784 27.254 15.5517V22.2542C27.254 23.8639 26.7516 25.3079 25.773 26.3578C24.7878 27.4147 23.3856 28.0008 21.7354 28.0008H13.5186C11.8533 28.0008 10.4491 27.4162 9.46632 26.356C8.4911 25.3041 8 23.8595 8 22.2542V14.5581C8 12.9485 8.50235 11.5028 9.48028 10.4509Z" fill="#354259"/>
</svg>
