<svg width="42" height="43" viewBox="0 0 42 43" fill="none" xmlns="http://www.w3.org/2000/svg">
<circle cx="21" cy="21.5" r="21" fill="#AEE5F3"/>
<g clip-path="url(#clip0_2859_12344)">
<path d="M23 12.5V16.5C23 16.7652 23.1054 17.0196 23.2929 17.2071C23.4804 17.3946 23.7348 17.5 24 17.5H28" stroke="#354259" stroke-width="1.5" stroke-linecap="round" stroke-linejoin="round"/>
<path d="M26 30.5H16C15.4696 30.5 14.9609 30.2893 14.5858 29.9142C14.2107 29.5391 14 29.0304 14 28.5V14.5C14 13.9696 14.2107 13.4609 14.5858 13.0858C14.9609 12.7107 15.4696 12.5 16 12.5H23L28 17.5V28.5C28 29.0304 27.7893 29.5391 27.4142 29.9142C27.0391 30.2893 26.5304 30.5 26 30.5Z" stroke="#354259" stroke-width="1.5" stroke-linecap="round" stroke-linejoin="round"/>
<path d="M23 20.5H20.5C20.1022 20.5 19.7206 20.658 19.4393 20.9393C19.158 21.2206 19 21.6022 19 22C19 22.3978 19.158 22.7794 19.4393 23.0607C19.7206 23.342 20.1022 23.5 20.5 23.5H21.5C21.8978 23.5 22.2794 23.658 22.5607 23.9393C22.842 24.2206 23 24.6022 23 25C23 25.3978 22.842 25.7794 22.5607 26.0607C22.2794 26.342 21.8978 26.5 21.5 26.5H19" stroke="#354259" stroke-width="1.5" stroke-linecap="round" stroke-linejoin="round"/>
<path d="M21 26.5V27.5M21 19.5V20.5" stroke="#354259" stroke-width="1.5" stroke-linecap="round" stroke-linejoin="round"/>
</g>
<defs>
<clipPath id="clip0_2859_12344">
<rect width="24" height="24" fill="white" transform="translate(9 9.5)"/>
</clipPath>
</defs>
</svg>
