<svg width="11" height="6" viewBox="0 0 11 6" fill="none" xmlns="http://www.w3.org/2000/svg">
<path fill-rule="evenodd" clip-rule="evenodd" d="M6.04025 5.77093C5.8994 5.91761 5.70839 6 5.50923 6C5.31007 6 5.11906 5.91761 4.97821 5.77093L0.729299 1.34511C0.657562 1.27294 0.600342 1.18661 0.560979 1.09116C0.521615 0.995705 0.500895 0.893043 0.500028 0.789161C0.499162 0.68528 0.518166 0.582259 0.555931 0.486109C0.593697 0.38996 0.649467 0.302607 0.719989 0.229149C0.790511 0.15569 0.874371 0.0975976 0.966677 0.0582597C1.05898 0.0189218 1.15789 -0.000873164 1.25762 2.95397e-05C1.35734 0.000932243 1.4559 0.0225147 1.54754 0.0635176C1.63917 0.10452 1.72205 0.164122 1.79134 0.238846L5.50923 4.11154L9.22712 0.238846C9.36878 0.0963322 9.5585 0.0174745 9.75544 0.019257C9.95237 0.0210396 10.1408 0.10332 10.28 0.248376C10.4193 0.393433 10.4983 0.589659 10.5 0.794792C10.5017 0.999925 10.426 1.19755 10.2892 1.34511L6.04025 5.77093Z" fill="#707070"/>
</svg>
